<svg width="327" height="307" viewBox="0 0 327 307" fill="none" xmlns="http://www.w3.org/2000/svg">
<path d="M59.504 86H39.44L20.24 34.448C20.88 39.504 21.36 43.984 21.68 47.888C22.064 51.728 22.256 56.304 22.256 61.616V86H8.24V19.472H27.824L47.504 71.12C46.096 62.352 45.392 54.096 45.392 46.352V19.472H59.504V86ZM112.12 71.216C112.12 73.136 112.376 74.544 112.888 75.44C113.464 76.336 114.36 77.008 115.576 77.456L112.408 87.344C109.272 87.088 106.712 86.416 104.728 85.328C102.744 84.176 101.208 82.384 100.12 79.952C96.7923 85.072 91.6723 87.632 84.7603 87.632C79.7043 87.632 75.6723 86.16 72.6643 83.216C69.6563 80.272 68.1523 76.432 68.1523 71.696C68.1523 66.128 70.2003 61.872 74.2963 58.928C78.3923 55.984 84.3123 54.512 92.0563 54.512H97.2403V52.304C97.2403 49.296 96.6003 47.248 95.3203 46.16C94.0403 45.008 91.8003 44.432 88.6003 44.432C86.9363 44.432 84.9203 44.688 82.5523 45.2C80.1843 45.648 77.7523 46.288 75.2563 47.12L71.8003 37.136C75.0003 35.92 78.2643 34.992 81.5923 34.352C84.9843 33.712 88.1203 33.392 91.0002 33.392C98.2963 33.392 103.64 34.896 107.032 37.904C110.424 40.912 112.12 45.424 112.12 51.44V71.216ZM89.1763 76.784C92.6323 76.784 95.3203 75.152 97.2403 71.888V62.864H93.4963C90.0403 62.864 87.4483 63.472 85.7203 64.688C84.0563 65.904 83.2243 67.792 83.2243 70.352C83.2243 72.4 83.7363 74 84.7603 75.152C85.8483 76.24 87.3203 76.784 89.1763 76.784ZM156.17 83.6C154.314 84.88 152.138 85.872 149.642 86.576C147.21 87.28 144.778 87.632 142.346 87.632C131.21 87.568 125.642 81.424 125.642 69.2V45.584H118.442V35.024H125.642V23.984L140.81 22.256V35.024H152.522L150.89 45.584H140.81V69.008C140.81 71.376 141.194 73.072 141.962 74.096C142.73 75.12 143.946 75.632 145.61 75.632C147.338 75.632 149.162 75.088 151.082 74L156.17 83.6ZM191.089 33.392C195.505 33.392 198.961 34.736 201.457 37.424C203.953 40.112 205.201 43.888 205.201 48.752V86H190.033V51.344C190.033 48.784 189.617 47.024 188.785 46.064C187.953 45.04 186.769 44.528 185.233 44.528C182.161 44.528 179.217 46.704 176.401 51.056V86H161.233V14.768L176.401 13.232V40.496C178.513 38.128 180.753 36.368 183.121 35.216C185.489 34 188.145 33.392 191.089 33.392ZM257.152 71.216C257.152 73.136 257.408 74.544 257.92 75.44C258.496 76.336 259.392 77.008 260.608 77.456L257.44 87.344C254.304 87.088 251.744 86.416 249.76 85.328C247.776 84.176 246.24 82.384 245.152 79.952C241.824 85.072 236.704 87.632 229.792 87.632C224.736 87.632 220.704 86.16 217.696 83.216C214.688 80.272 213.184 76.432 213.184 71.696C213.184 66.128 215.232 61.872 219.328 58.928C223.424 55.984 229.344 54.512 237.088 54.512H242.272V52.304C242.272 49.296 241.632 47.248 240.352 46.16C239.072 45.008 236.832 44.432 233.632 44.432C231.968 44.432 229.952 44.688 227.584 45.2C225.216 45.648 222.784 46.288 220.288 47.12L216.832 37.136C220.032 35.92 223.296 34.992 226.624 34.352C230.016 33.712 233.152 33.392 236.031 33.392C243.328 33.392 248.672 34.896 252.064 37.904C255.456 40.912 257.152 45.424 257.152 51.44V71.216ZM234.208 76.784C237.664 76.784 240.352 75.152 242.272 71.888V62.864H238.528C235.072 62.864 232.48 63.472 230.752 64.688C229.088 65.904 228.256 67.792 228.256 70.352C228.256 72.4 228.768 74 229.792 75.152C230.88 76.24 232.352 76.784 234.208 76.784ZM299.089 33.392C303.505 33.392 306.961 34.736 309.457 37.424C311.953 40.112 313.201 43.888 313.201 48.752V86H298.033V51.344C298.033 48.784 297.617 47.024 296.785 46.064C296.017 45.04 294.833 44.528 293.233 44.528C290.161 44.528 287.217 46.736 284.401 51.152V86H269.233V35.024H282.481L283.537 41.072C285.713 38.512 288.049 36.592 290.545 35.312C293.105 34.032 295.953 33.392 299.089 33.392ZM43.28 194L39.824 179.696H20.432L17.072 194H0.752L20.816 127.472H39.92L59.984 194H43.28ZM23.12 168.272H37.136L30.128 138.896L23.12 168.272ZM120.929 141.392C124.961 141.392 128.193 142.768 130.625 145.52C133.057 148.208 134.273 151.952 134.273 156.752V194H119.105V159.344C119.105 154.8 117.665 152.528 114.785 152.528C113.185 152.528 111.777 153.072 110.561 154.16C109.345 155.248 108.161 156.912 107.009 159.152V194H91.841V159.344C91.841 154.8 90.401 152.528 87.521 152.528C85.985 152.528 84.577 153.104 83.297 154.256C82.081 155.344 80.897 156.976 79.745 159.152V194H64.577V143.024H77.825L78.881 148.976C80.865 146.416 83.041 144.528 85.409 143.312C87.841 142.032 90.593 141.392 93.665 141.392C96.545 141.392 99.009 142.096 101.057 143.504C103.169 144.912 104.705 146.896 105.665 149.456C107.713 146.704 109.953 144.688 112.385 143.408C114.881 142.064 117.729 141.392 120.929 141.392ZM186.183 179.216C186.183 181.136 186.439 182.544 186.951 183.44C187.527 184.336 188.423 185.008 189.639 185.456L186.471 195.344C183.335 195.088 180.775 194.416 178.791 193.328C176.807 192.176 175.271 190.384 174.183 187.952C170.855 193.072 165.735 195.632 158.823 195.632C153.767 195.632 149.735 194.16 146.727 191.216C143.719 188.272 142.215 184.432 142.215 179.696C142.215 174.128 144.263 169.872 148.359 166.928C152.455 163.984 158.375 162.512 166.119 162.512H171.303V160.304C171.303 157.296 170.663 155.248 169.383 154.16C168.103 153.008 165.863 152.432 162.663 152.432C160.999 152.432 158.983 152.688 156.615 153.2C154.247 153.648 151.815 154.288 149.319 155.12L145.863 145.136C149.063 143.92 152.327 142.992 155.655 142.352C159.047 141.712 162.183 141.392 165.063 141.392C172.359 141.392 177.703 142.896 181.095 145.904C184.487 148.912 186.183 153.424 186.183 159.44V179.216ZM163.239 184.784C166.695 184.784 169.383 183.152 171.303 179.888V170.864H167.559C164.103 170.864 161.511 171.472 159.783 172.688C158.119 173.904 157.287 175.792 157.287 178.352C157.287 180.4 157.799 182 158.823 183.152C159.911 184.24 161.383 184.784 163.239 184.784ZM225.913 141.584C227.769 141.584 229.465 141.808 231.001 142.256L228.601 156.944C226.681 156.496 225.145 156.272 223.993 156.272C220.985 156.272 218.681 157.328 217.081 159.44C215.545 161.488 214.329 164.592 213.433 168.752V194H198.265V143.024H211.513L212.761 152.912C213.913 149.392 215.641 146.64 217.945 144.656C220.313 142.608 222.969 141.584 225.913 141.584ZM273.933 179.216C273.933 181.136 274.189 182.544 274.701 183.44C275.277 184.336 276.173 185.008 277.389 185.456L274.221 195.344C271.085 195.088 268.525 194.416 266.541 193.328C264.557 192.176 263.021 190.384 261.933 187.952C258.605 193.072 253.485 195.632 246.573 195.632C241.517 195.632 237.485 194.16 234.477 191.216C231.469 188.272 229.965 184.432 229.965 179.696C229.965 174.128 232.013 169.872 236.109 166.928C240.205 163.984 246.125 162.512 253.869 162.512H259.053V160.304C259.053 157.296 258.413 155.248 257.133 154.16C255.853 153.008 253.613 152.432 250.413 152.432C248.749 152.432 246.733 152.688 244.365 153.2C241.997 153.648 239.565 154.288 237.069 155.12L233.613 145.136C236.813 143.92 240.077 142.992 243.405 142.352C246.797 141.712 249.933 141.392 252.813 141.392C260.109 141.392 265.453 142.896 268.845 145.904C272.237 148.912 273.933 153.424 273.933 159.44V179.216ZM250.989 184.784C254.445 184.784 257.133 183.152 259.053 179.888V170.864H255.309C251.853 170.864 249.261 171.472 247.533 172.688C245.869 173.904 245.037 175.792 245.037 178.352C245.037 180.4 245.549 182 246.573 183.152C247.661 184.24 249.133 184.784 250.989 184.784ZM298.613 195.632C294.197 195.632 290.741 194.384 288.245 191.888C285.813 189.328 284.597 185.712 284.597 181.04V122.768L299.765 121.136V180.464C299.765 182.576 300.629 183.632 302.357 183.632C303.253 183.632 304.085 183.472 304.853 183.152L307.829 193.904C305.077 195.056 302.005 195.632 298.613 195.632Z" fill="url(#paint0_linear_24_12)"/>
<path d="M135.87 237.052L109.121 263.801C107.95 264.972 107.95 266.872 109.121 268.043L135.87 294.792" stroke="url(#paint1_linear_24_12)" stroke-width="15" stroke-linecap="round"/>
<path d="M195.13 294.792L221.879 268.043C223.05 266.872 223.05 264.972 221.879 263.801L195.13 237.052" stroke="url(#paint2_linear_24_12)" stroke-width="15" stroke-linecap="round"/>
<path d="M174.87 233L156.13 299.097" stroke="url(#paint3_linear_24_12)" stroke-width="15" stroke-linecap="round"/>
<defs>
<linearGradient id="paint0_linear_24_12" x1="164.5" y1="0" x2="164.5" y2="209" gradientUnits="userSpaceOnUse">
<stop stop-color="#283C70"/>
<stop offset="1" stop-color="#4D73D6"/>
</linearGradient>
<linearGradient id="paint1_linear_24_12" x1="121.435" y1="237.052" x2="121.435" y2="294.792" gradientUnits="userSpaceOnUse">
<stop stop-color="#283C70"/>
<stop offset="1" stop-color="#4D73D6"/>
</linearGradient>
<linearGradient id="paint2_linear_24_12" x1="209.565" y1="294.792" x2="209.565" y2="237.052" gradientUnits="userSpaceOnUse">
<stop stop-color="#283C70"/>
<stop offset="1" stop-color="#4D73D6"/>
</linearGradient>
<linearGradient id="paint3_linear_24_12" x1="165.5" y1="233" x2="165.5" y2="299.097" gradientUnits="userSpaceOnUse">
<stop stop-color="#283C70"/>
<stop offset="1" stop-color="#4D73D6"/>
</linearGradient>
</defs>
</svg>
