<svg width="153" height="38" viewBox="0 0 153 38" fill="none" xmlns="http://www.w3.org/2000/svg">
<path d="M25.752 37H15.72L6.12 11.224C6.44 13.752 6.68 15.992 6.84 17.944C7.032 19.864 7.128 22.152 7.128 24.808V37H0.119995V3.736H9.912L19.752 29.56C19.048 25.176 18.696 21.048 18.696 17.176V3.736H25.752V37Z" fill="#1E1E1E"/>
<path d="M52.0601 29.608C52.0601 30.568 52.1881 31.272 52.4441 31.72C52.7321 32.168 53.1801 32.504 53.7881 32.728L52.2041 37.672C50.6361 37.544 49.3561 37.208 48.3641 36.664C47.3721 36.088 46.6041 35.192 46.0601 33.976C44.3961 36.536 41.8361 37.816 38.3801 37.816C35.8521 37.816 33.8361 37.08 32.3321 35.608C30.8281 34.136 30.0761 32.216 30.0761 29.848C30.0761 27.064 31.1001 24.936 33.1481 23.464C35.1961 21.992 38.1561 21.256 42.0281 21.256H44.6201V20.152C44.6201 18.648 44.3001 17.624 43.6601 17.08C43.0201 16.504 41.9001 16.216 40.3001 16.216C39.4681 16.216 38.4601 16.344 37.2761 16.6C36.0921 16.824 34.8761 17.144 33.6281 17.56L31.9001 12.568C33.5001 11.96 35.1321 11.496 36.7961 11.176C38.4921 10.856 40.0601 10.696 41.5001 10.696C45.1481 10.696 47.8201 11.448 49.5161 12.952C51.2121 14.456 52.0601 16.712 52.0601 19.72V29.608ZM40.5881 32.392C42.3161 32.392 43.6601 31.576 44.6201 29.944V25.432H42.7481C41.0201 25.432 39.7241 25.736 38.8601 26.344C38.0281 26.952 37.6121 27.896 37.6121 29.176C37.6121 30.2 37.8681 31 38.3801 31.576C38.9241 32.12 39.6601 32.392 40.5881 32.392Z" fill="#1E1E1E"/>
<path d="M74.085 35.8C73.157 36.44 72.069 36.936 70.821 37.288C69.605 37.64 68.389 37.816 67.173 37.816C61.605 37.784 58.821 34.712 58.821 28.6V16.792H55.221V11.512H58.821V5.992L66.405 5.128V11.512H72.261L71.445 16.792H66.405V28.504C66.405 29.688 66.597 30.536 66.981 31.048C67.365 31.56 67.973 31.816 68.805 31.816C69.669 31.816 70.581 31.544 71.541 31L74.085 35.8Z" fill="#1E1E1E"/>
<path d="M91.5446 10.696C93.7526 10.696 95.4806 11.368 96.7286 12.712C97.9766 14.056 98.6006 15.944 98.6006 18.376V37H91.0166V19.672C91.0166 18.392 90.8086 17.512 90.3926 17.032C89.9766 16.52 89.3846 16.264 88.6166 16.264C87.0806 16.264 85.6086 17.352 84.2006 19.528V37H76.6166V1.384L84.2006 0.615997V14.248C85.2566 13.064 86.3766 12.184 87.5606 11.608C88.7446 11 90.0726 10.696 91.5446 10.696Z" fill="#1E1E1E"/>
<path d="M124.576 29.608C124.576 30.568 124.704 31.272 124.96 31.72C125.248 32.168 125.696 32.504 126.304 32.728L124.72 37.672C123.152 37.544 121.872 37.208 120.88 36.664C119.888 36.088 119.12 35.192 118.576 33.976C116.912 36.536 114.352 37.816 110.896 37.816C108.368 37.816 106.352 37.08 104.848 35.608C103.344 34.136 102.592 32.216 102.592 29.848C102.592 27.064 103.616 24.936 105.664 23.464C107.712 21.992 110.672 21.256 114.544 21.256H117.136V20.152C117.136 18.648 116.816 17.624 116.176 17.08C115.536 16.504 114.416 16.216 112.816 16.216C111.984 16.216 110.976 16.344 109.792 16.6C108.608 16.824 107.392 17.144 106.144 17.56L104.416 12.568C106.016 11.96 107.648 11.496 109.312 11.176C111.008 10.856 112.576 10.696 114.016 10.696C117.664 10.696 120.336 11.448 122.032 12.952C123.728 14.456 124.576 16.712 124.576 19.72V29.608ZM113.104 32.392C114.832 32.392 116.176 31.576 117.136 29.944V25.432H115.264C113.536 25.432 112.24 25.736 111.376 26.344C110.544 26.952 110.128 27.896 110.128 29.176C110.128 30.2 110.384 31 110.896 31.576C111.44 32.12 112.176 32.392 113.104 32.392Z" fill="#1E1E1E"/>
<path d="M145.545 10.696C147.753 10.696 149.481 11.368 150.729 12.712C151.977 14.056 152.601 15.944 152.601 18.376V37H145.017V19.672C145.017 18.392 144.809 17.512 144.393 17.032C144.009 16.52 143.417 16.264 142.617 16.264C141.081 16.264 139.609 17.368 138.201 19.576V37H130.617V11.512H137.241L137.769 14.536C138.857 13.256 140.025 12.296 141.273 11.656C142.553 11.016 143.977 10.696 145.545 10.696Z" fill="#1E1E1E"/>
</svg>
